<svg height="21" width="97" xmlns="http://www.w3.org/2000/svg"><g fill="none" fill-rule="evenodd"><path d="m0 0h7v7h-7z" fill="#a2b2d2"/><path d="m7 0h7v7h-7z" fill="#c6cee5"/><path d="m14 0h7v7h-7z" fill="#fefffe"/><path d="m0 7h7v7h-7z" fill="#98a7ce"/><path d="m7 7h7v7h-7z" fill="#758cbf"/><path d="m14 7h7v7h-7z" fill="#dbe0ec"/><path d="m0 14h7v7h-7z" fill="#d2dae6"/><path d="m7 14h7v7h-7z" fill="#96a8ce"/><path d="m14 14h7v7h-7z" fill="#bcc8e0"/><path d="m33.784 18v-5.45h3.91c3.312 0 5.152-2.278 5.152-4.946 0-2.69-1.817-4.945-5.152-4.945h-7.176v15.341zm3.473-8.326h-3.473v-4.14h3.473c1.288 0 2.254.782 2.254 2.07 0 1.265-.964 2.07-2.252 2.07zm20.233 8.326-3.45-5.842c1.656-.39 3.358-1.84 3.358-4.554 0-2.852-1.955-4.945-5.152-4.945h-7.176v15.341h3.266v-5.45h2.392l3.012 5.45zm-5.727-8.326h-3.427v-4.14h3.427c1.31 0 2.3.782 2.3 2.07s-.99 2.07-2.3 2.07zm23.213 8.602c3.38 0 5.313-1.863 6.417-3.772l-2.806-1.357c-.644 1.265-2.024 2.23-3.61 2.23-2.784 0-4.808-2.138-4.808-5.036 0-2.896 2.022-5.035 4.805-5.035 1.587 0 2.967.99 3.61 2.23l2.807-1.38c-1.08-1.908-3.036-3.748-6.417-3.748-4.6 0-8.165 3.22-8.165 7.935 0 4.716 3.566 7.936 8.166 7.936zm15.816-.276v-6.28l5.865-9.06h-3.727l-3.77 6.163-3.82-6.164h-3.725l5.91 9.06v6.281zm-26.776-6.856c0-1.056-.888-1.944-1.944-1.944s-1.944.888-1.944 1.944c0 1.032.888 1.92 1.944 1.92s1.944-.888 1.944-1.92z" fill="#fff"/></g></svg>